# xmcd
#
# Track frame offsets:
#	150
#	12854
#	29305
#	44515
#	55392
#	68212
#	83551
#	98973
#	112906
#	128083
#	139350
#	155039
#	167373
#	181797
#	196606
#	211506
#	225082
#	237332
#
# Disc length: 3329 seconds
#
# Revision: 2
# Processed by: cddbd v1.5.2PL0 Copyright (c) Steve Scherf et al.
# Submitted via: EZCDAudioConverter 7.0.8.1
#
DISCID=dc0cff12
DTITLE=이미자 - 세상과 함께 부른 나의 노래 101곡(Lee, Mi-Ja The 50th Aniversary)(CD3)
DYEAR=2009
DGENRE=Trot
TTITLE0=섬마을 선생님 (1)
TTITLE1=기러기 아빠
TTITLE2=황포 돛대
TTITLE3=여로
TTITLE4=아씨
TTITLE5=비오는 양산도
TTITLE6=여자의 일생
TTITLE7=눈물이 진주라면
TTITLE8=한번준 마음인데
TTITLE9=네온의 부르스
TTITLE10=타국에서
TTITLE11=저 강은 알고 있다
TTITLE12=지평선은 말이 없다
TTITLE13=빙점
TTITLE14=잊을 수 없는 연인
TTITLE15=첫눈 내리는 거리
TTITLE16=재일 교포
TTITLE17=섬마을 선생님(2)
EXTD=
EXTT0=
EXTT1=
EXTT2=
EXTT3=
EXTT4=
EXTT5=
EXTT6=
EXTT7=
EXTT8=
EXTT9=
EXTT10=
EXTT11=
EXTT12=
EXTT13=
EXTT14=
EXTT15=
EXTT16=
EXTT17=
PLAYORDER=
